<?xml version="1.0" standalone="no"?>
<!DOCTYPE svg PUBLIC "-//W3C//DTD SVG 20010904//EN"
 "http://www.w3.org/TR/2001/REC-SVG-20010904/DTD/svg10.dtd">
<svg version="1.0" xmlns="http://www.w3.org/2000/svg"
 width="162.000000pt" height="162.000000pt" viewBox="0 0 162.000000 162.000000"
 preserveAspectRatio="xMidYMid meet">
<metadata>
Created by potrace 1.11, written by Peter Selinger 2001-2013
</metadata>
<g transform="translate(0.000000,162.000000) scale(0.100000,-0.100000)"
fill="#000000" stroke="none">
<path d="M710 1589 c-87 -9 -141 -24 -224 -62 l-68 -31 6 -56 c4 -30 9 -69 12
-85 4 -17 7 -39 8 -50 1 -19 61 -48 124 -60 15 -2 41 -9 59 -14 17 -5 34 -7
37 -3 3 3 6 -1 6 -9 0 -10 3 -10 8 -3 4 7 24 15 46 18 36 6 38 5 25 -11 -11
-15 -10 -15 9 1 12 11 22 15 22 10 0 -5 5 -2 10 6 8 12 10 12 10 1 0 -11 3
-11 15 -1 14 12 20 7 16 -14 -1 -5 4 -5 11 0 7 6 19 9 26 8 6 -1 21 -2 33 -3
13 -1 18 -5 13 -13 -5 -9 -2 -9 9 1 9 7 17 9 17 4 0 -5 6 -10 14 -10 22 0 76
-24 76 -34 0 -5 6 -8 13 -7 6 2 11 -3 9 -10 -1 -8 2 -11 8 -7 16 10 98 -83
127 -142 14 -30 30 -84 36 -121 12 -73 25 -91 45 -65 11 15 17 11 13 -10 -1
-5 3 -6 8 -2 6 3 8 12 5 20 -6 15 33 41 56 36 8 -2 12 0 8 5 -4 4 0 13 10 20
13 9 19 9 24 1 5 -8 8 -6 8 5 0 16 17 21 30 8 10 -10 45 -31 63 -36 9 -4 17
-10 17 -15 0 -5 7 -9 15 -9 9 0 20 -10 25 -22 5 -13 9 -17 9 -9 1 11 6 10 21
-4 19 -17 20 -17 14 -2 -3 10 0 25 7 34 10 12 10 15 2 9 -9 -5 -13 -1 -14 11
0 10 -2 25 -4 33 -10 51 -18 99 -19 122 0 14 -3 24 -5 22 -7 -6 -31 69 -25 78
3 4 1 8 -4 8 -5 0 -19 23 -32 50 -13 28 -28 50 -33 50 -5 0 -6 8 -3 17 4 10 4
14 0 11 -4 -4 -23 14 -42 40 -159 210 -431 321 -712 291z"/>
<path d="M251 1363 c-194 -197 -263 -446 -206 -743 4 -19 10 -44 15 -55 4 -11
14 -36 21 -55 24 -68 104 -191 160 -249 32 -32 56 -60 54 -63 -2 -2 12 -3 32
-2 20 1 38 6 42 11 3 4 22 14 40 20 28 10 37 10 43 0 5 -8 8 -6 8 7 0 20 0 20
15 0 13 -16 14 -16 9 -2 -4 13 -1 18 11 18 12 0 15 5 10 21 -4 12 -3 19 2 16
4 -3 8 12 7 34 0 21 3 39 8 39 5 0 6 5 3 10 -4 6 -1 18 6 26 10 12 9 13 -6 8
-15 -6 -16 -4 -7 12 17 32 9 56 -30 98 -20 22 -35 43 -32 48 3 4 1 8 -5 8 -10
0 -27 38 -23 53 1 4 -3 7 -9 7 -6 0 -9 9 -6 20 3 12 1 18 -5 14 -7 -5 -9 3 -4
22 4 19 3 24 -3 15 -7 -11 -10 -10 -13 5 -2 10 3 25 12 32 8 8 10 11 3 8 -15
-8 -27 10 -13 19 8 5 8 11 0 20 -13 16 -4 118 11 123 5 2 9 8 9 13 0 6 -5 7
-10 4 -6 -4 -1 17 10 47 11 29 20 54 20 56 0 1 5 2 11 2 5 0 7 -5 3 -12 -4 -6
-3 -8 4 -5 5 4 8 17 5 28 -4 14 0 25 11 31 9 5 14 13 11 17 -2 5 5 17 18 27
14 13 18 14 12 4 -6 -10 -4 -9 6 2 9 9 20 14 23 10 4 -3 4 2 0 12 -5 13 -4 17
3 13 6 -4 13 0 16 8 5 10 -9 19 -51 31 -100 30 -112 36 -99 53 9 12 9 13 0 7
-7 -4 -13 -2 -13 3 0 6 6 11 13 11 7 0 5 5 -5 10 -10 6 -15 21 -14 40 1 16 -2
30 -7 30 -5 0 -3 8 4 17 10 11 10 14 2 9 -9 -5 -13 0 -13 18 0 32 -10 56 -22
56 -6 0 -49 -39 -97 -87z"/>
<path d="M416 953 c-6 -14 -5 -15 5 -6 7 7 10 15 7 18 -3 3 -9 -2 -12 -12z"/>
<path d="M1593 945 c0 -8 4 -12 9 -9 5 3 6 10 3 15 -9 13 -12 11 -12 -6z"/>
<path d="M1370 881 c0 -6 4 -13 10 -16 6 -3 7 1 4 9 -7 18 -14 21 -14 7z"/>
<path d="M1330 860 c0 -5 5 -10 11 -10 5 0 7 5 4 10 -3 6 -8 10 -11 10 -2 0
-4 -4 -4 -10z"/>
<path d="M1335 800 c-94 -61 -112 -77 -118 -110 -12 -57 -60 -144 -107 -191
-113 -114 -290 -153 -452 -98 -33 11 -62 18 -64 16 -7 -7 -20 -102 -22 -170
-2 -33 -5 -38 -32 -44 -17 -3 -33 -10 -36 -14 -3 -5 -9 -7 -14 -4 -4 3 -21 -2
-36 -10 -16 -8 -37 -15 -46 -15 -29 0 -21 -15 22 -44 22 -14 40 -23 40 -20 0
3 10 0 22 -8 24 -15 67 -29 81 -25 5 1 13 -6 19 -16 7 -14 13 -16 24 -6 11 9
14 9 14 -1 0 -8 3 -10 7 -7 3 4 12 -1 20 -11 12 -16 13 -16 7 1 -5 15 -3 16
17 9 13 -5 31 -7 39 -4 13 5 13 3 0 -14 -14 -19 -14 -19 8 0 12 11 22 14 22 8
0 -7 5 -12 11 -12 5 0 8 4 5 8 -8 14 31 7 50 -9 11 -9 15 -9 10 -1 -4 6 -4 12
1 13 4 0 16 2 26 4 11 2 15 -1 10 -8 -5 -8 -2 -8 8 0 12 10 18 10 29 0 8 -7
10 -7 7 -1 -4 7 7 14 31 17 20 4 52 10 71 13 27 6 32 4 26 -6 -6 -9 -4 -11 4
-6 7 5 10 11 7 14 -11 11 39 29 56 20 13 -6 16 -5 12 5 -3 8 2 17 10 20 11 4
13 1 9 -11 -4 -10 4 -6 20 11 24 24 33 29 54 26 3 0 10 6 15 15 5 9 18 21 30
27 14 8 18 8 14 0 -4 -7 -1 -9 8 -5 9 3 14 9 13 12 -1 4 2 8 7 9 5 1 14 12 20
24 6 12 17 24 25 27 9 3 11 0 6 -8 -5 -9 -4 -11 4 -6 6 4 8 12 5 18 -5 7 -1 9
9 5 9 -3 19 -1 23 5 4 7 3 8 -4 4 -7 -4 -12 -1 -12 9 0 11 5 15 16 11 8 -3 12
-2 9 4 -3 6 -1 10 6 10 7 0 9 3 6 7 -4 3 2 17 14 29 12 13 27 34 33 46 7 14
20 22 32 21 10 -1 13 0 7 3 -15 7 -17 34 -3 34 6 0 10 9 10 20 0 11 5 20 10
20 5 0 9 3 9 8 -3 19 2 25 11 12 8 -11 9 -8 4 13 -4 17 -2 27 5 27 6 0 10 3 9
8 -3 15 15 82 22 82 5 0 6 9 3 20 -3 13 0 20 8 20 11 0 11 2 -1 10 -8 5 -10
10 -3 10 6 0 10 8 8 18 -2 9 -4 22 -4 29 -1 12 -164 124 -178 122 -5 0 -35
-18 -68 -39z"/>
<path d="M1573 575 c0 -8 4 -12 9 -9 5 3 6 10 3 15 -9 13 -12 11 -12 -6z"/>
<path d="M1510 440 c0 -5 5 -10 10 -10 6 0 10 5 10 10 0 6 -4 10 -10 10 -5 0
-10 -4 -10 -10z"/>
<path d="M1236 142 c-3 -5 1 -9 9 -9 8 0 12 4 9 9 -3 4 -7 8 -9 8 -2 0 -6 -4
-9 -8z"/>
<path d="M1074 59 c-3 -6 -2 -15 3 -20 5 -5 9 -1 9 11 0 23 -2 24 -12 9z"/>
</g>
</svg>
