<?xml version="1.0" standalone="no"?>
<!DOCTYPE svg PUBLIC "-//W3C//DTD SVG 20010904//EN"
 "http://www.w3.org/TR/2001/REC-SVG-20010904/DTD/svg10.dtd">
<svg version="1.0" xmlns="http://www.w3.org/2000/svg"
 width="163.000000pt" height="163.000000pt" viewBox="0 0 163.000000 163.000000"
 preserveAspectRatio="xMidYMid meet">
<metadata>
Created by potrace 1.11, written by Peter Selinger 2001-2013
</metadata>
<g transform="translate(0.000000,163.000000) scale(0.100000,-0.100000)"
fill="#000000" stroke="none">
<path d="M710 1599 c-87 -9 -142 -24 -223 -62 l-69 -31 7 -60 c3 -34 9 -72 12
-85 3 -13 6 -33 7 -45 1 -21 58 -49 124 -61 15 -2 41 -9 59 -14 17 -5 34 -7
37 -3 3 3 6 -1 6 -9 0 -10 3 -10 8 -3 4 7 24 15 46 18 36 6 38 5 25 -11 -11
-15 -10 -15 9 1 12 11 22 15 22 10 0 -5 5 -2 10 6 7 11 10 11 10 2 0 -10 5
-10 22 -1 18 10 20 9 15 -5 -5 -12 -3 -15 6 -9 18 11 49 14 43 4 -3 -5 4 -7
16 -3 16 4 19 2 13 -9 -8 -12 -6 -12 8 0 13 11 17 11 17 1 0 -8 3 -11 6 -7 9
8 65 -14 59 -23 -3 -5 0 -12 6 -16 8 -4 9 -3 5 4 -9 15 -1 15 25 1 11 -5 16
-15 13 -21 -4 -7 -3 -8 5 -4 17 11 100 -81 128 -142 14 -29 30 -83 36 -120 12
-73 25 -91 45 -65 11 15 17 11 13 -10 -1 -5 3 -6 8 -2 6 3 8 12 5 20 -6 15 33
41 56 36 8 -2 12 0 8 5 -4 4 0 13 10 20 13 9 19 9 24 1 5 -8 8 -7 8 4 0 9 7
16 15 16 8 0 15 -4 15 -8 0 -3 8 -9 18 -13 17 -5 52 -26 62 -36 3 -3 14 -10
25 -17 11 -6 19 -16 17 -23 -1 -6 2 -9 8 -5 6 4 18 1 26 -6 12 -9 14 -9 10 2
-9 30 -16 113 -7 101 7 -11 9 -10 14 3 4 9 3 13 -2 10 -16 -9 -32 35 -35 97 0
14 -3 24 -5 22 -7 -6 -31 69 -25 78 3 4 1 8 -4 8 -5 0 -19 23 -32 50 -13 28
-28 50 -33 50 -5 0 -6 7 -3 16 3 8 2 12 -4 9 -9 -6 -14 8 -11 28 0 4 -3 6 -7
5 -11 -4 -62 56 -62 72 0 6 -4 9 -8 6 -5 -3 -16 3 -24 13 -23 27 -115 94 -168
123 -130 72 -308 105 -470 87z"/>
<path d="M251 1373 c-152 -155 -226 -337 -225 -558 0 -80 8 -149 22 -185 5
-14 7 -30 5 -37 -2 -6 1 -14 6 -18 6 -3 11 -13 11 -21 0 -46 104 -216 176
-288 27 -27 48 -52 47 -55 -2 -10 69 -4 76 6 10 15 50 22 55 9 2 -6 5 -3 5 7
1 20 17 23 24 5 3 -7 6 -4 6 6 1 20 1 20 16 0 13 -16 14 -16 9 -2 -4 12 -1 18
9 18 9 0 15 9 15 23 0 45 12 110 23 123 10 12 9 13 -6 8 -15 -6 -16 -4 -7 12
16 30 10 56 -20 86 -16 14 -28 31 -28 37 0 6 -5 11 -11 11 -5 0 -8 4 -5 9 3 5
-1 12 -10 15 -8 3 -13 10 -9 15 3 5 1 12 -5 16 -6 4 -8 11 -5 16 4 5 1 9 -6 9
-6 0 -9 8 -6 20 3 12 1 18 -5 14 -7 -5 -9 3 -4 22 4 19 3 24 -3 15 -7 -11 -10
-10 -13 5 -2 10 3 25 12 32 12 10 13 12 0 10 -16 -3 -21 23 -5 34 6 5 5 8 -3
8 -11 0 -12 13 -7 58 3 31 11 58 16 60 5 2 9 8 9 13 0 6 -5 7 -10 4 -6 -3 -2
15 8 42 10 27 24 48 32 48 8 0 15 10 16 22 1 12 -3 20 -7 17 -5 -3 -9 -2 -9 1
0 3 15 12 33 20 21 10 26 14 13 15 -18 0 -18 1 -1 20 10 11 22 17 26 14 5 -3
9 0 9 6 0 6 4 8 10 5 6 -4 7 1 3 11 -4 11 -2 15 4 11 6 -4 13 0 16 8 5 10 -9
19 -51 31 -100 30 -112 36 -99 53 9 12 9 13 0 7 -7 -4 -13 -2 -13 3 0 6 6 11
13 11 8 0 8 3 -2 9 -19 12 -27 66 -9 56 7 -4 6 -1 -2 7 -8 7 -16 24 -18 38 -5
48 -12 70 -23 70 -6 0 -50 -39 -98 -87z m199 -333 c0 -5 -2 -10 -4 -10 -3 0
-8 5 -11 10 -3 6 -1 10 4 10 6 0 11 -4 11 -10z"/>
<path d="M1370 891 c0 -6 4 -13 10 -16 6 -3 7 1 4 9 -7 18 -14 21 -14 7z"/>
<path d="M1330 870 c0 -5 5 -10 11 -10 5 0 7 5 4 10 -3 6 -8 10 -11 10 -2 0
-4 -4 -4 -10z"/>
<path d="M1335 810 c-94 -61 -112 -77 -118 -110 -12 -57 -60 -144 -107 -191
-113 -114 -290 -153 -452 -98 -33 11 -62 18 -64 16 -7 -7 -20 -101 -22 -169
-2 -32 -6 -39 -29 -44 -16 -4 -33 -11 -39 -16 -7 -5 -16 -8 -20 -7 -5 1 -22
-3 -37 -9 -16 -7 -35 -12 -43 -12 -25 0 -15 -17 26 -44 22 -14 40 -23 40 -20
0 3 10 0 22 -8 24 -15 67 -29 81 -25 5 1 13 -6 19 -16 7 -14 13 -16 24 -6 11
9 14 9 14 0 0 -7 4 -10 9 -7 5 4 12 0 14 -6 4 -10 6 -10 6 -1 1 9 8 10 24 4
12 -4 29 -6 37 -3 13 5 13 3 0 -14 -14 -17 -13 -18 1 -7 9 7 20 9 24 5 5 -4 6
-2 2 3 -3 7 8 10 29 10 19 0 34 -4 34 -8 0 -5 4 -6 9 -3 5 4 12 0 14 -6 3 -7
6 -4 6 6 1 20 1 20 16 0 11 -14 14 -15 9 -2 -4 12 -1 16 13 13 10 -1 17 -8 15
-15 -1 -6 2 -9 8 -5 6 3 8 11 5 16 -4 5 0 10 7 10 30 3 55 7 92 14 31 6 37 5
31 -5 -5 -9 -4 -11 4 -6 6 4 9 11 6 16 -7 11 39 21 62 14 14 -4 15 -4 4 4 -11
8 -10 12 7 21 19 10 21 9 15 -6 -4 -12 3 -8 20 10 24 24 33 29 54 26 3 0 10 6
15 15 5 9 18 21 30 27 14 8 18 8 14 0 -4 -7 -1 -9 8 -5 9 3 14 9 13 12 -1 4 2
8 7 9 5 1 14 12 20 24 6 12 17 24 25 27 9 3 11 0 6 -8 -5 -9 -4 -11 4 -6 6 4
8 12 5 18 -5 7 -1 9 9 5 9 -3 19 -1 23 5 4 7 3 8 -4 4 -7 -4 -12 -1 -12 9 0
11 5 15 16 11 8 -3 12 -2 9 4 -3 6 -1 10 5 10 6 0 9 4 6 9 -8 12 21 34 34 26
5 -3 10 -1 10 4 0 6 -6 11 -12 11 -8 0 -9 3 -3 8 11 7 31 37 42 62 9 20 36 39
45 34 5 -3 8 0 8 6 0 7 -7 10 -15 6 -8 -3 -15 -1 -15 4 0 6 5 10 11 10 5 0 8
4 4 9 -3 5 -1 12 5 16 5 3 10 1 10 -6 0 -7 3 -9 6 -6 4 4 1 13 -6 22 -15 18 0
20 20 3 12 -11 12 -10 4 2 -11 16 -11 17 0 73 5 20 12 37 18 37 5 0 6 5 3 10
-4 6 -1 18 7 27 9 12 9 15 1 9 -7 -4 -13 -2 -13 3 0 6 4 11 9 11 5 0 8 8 6 18
-2 9 -4 22 -4 29 -1 12 -164 124 -178 122 -5 0 -35 -18 -68 -39z"/>
<path d="M1573 585 c0 -8 4 -12 9 -9 5 3 6 10 3 15 -9 13 -12 11 -12 -6z"/>
<path d="M1469 383 c-13 -17 -13 -17 6 -3 11 8 22 16 24 17 2 2 0 3 -6 3 -6 0
-17 -8 -24 -17z"/>
<path d="M1236 152 c-3 -5 1 -9 9 -9 8 0 12 4 9 9 -3 4 -7 8 -9 8 -2 0 -6 -4
-9 -8z"/>
<path d="M926 32 c-3 -5 1 -9 9 -9 8 0 15 4 15 9 0 10 -17 10 -24 0z"/>
</g>
</svg>
